<svg version="1.1" id="Layer_1" xmlns="http://www.w3.org/2000/svg" xmlns:xlink="http://www.w3.org/1999/xlink" x="0px" y="0px"
	 width="100%" viewBox="0 0 885 524" enable-background="new 0 0 885 524" xml:space="preserve">
<path fill="#FFFFFF" opacity="1.000000" stroke="none" 
	d="
M580.000000,525.000000 
	C386.666656,525.000000 193.833328,525.000000 1.000000,525.000000 
	C1.000000,350.333344 1.000000,175.666672 1.000000,1.000000 
	C296.000000,1.000000 591.000000,1.000000 886.000000,1.000000 
	C886.000000,175.666672 886.000000,350.333344 886.000000,525.000000 
	C784.166687,525.000000 682.333313,525.000000 580.000000,525.000000 
M214.825363,206.827301 
	C214.825363,206.827301 214.485886,206.519623 214.322998,205.665253 
	C214.335526,201.833786 214.266754,197.999847 214.382385,194.171494 
	C214.509659,189.958069 212.536697,188.046127 208.374680,188.078796 
	C201.710922,188.131119 195.046356,188.120453 188.382385,188.084747 
	C184.169357,188.062195 182.437408,190.165359 182.441391,194.290237 
	C182.480637,234.941498 182.477356,275.592834 182.443329,316.244110 
	C182.439774,320.473938 184.388489,322.259277 188.569839,322.184509 
	C195.231873,322.065308 201.897629,322.165710 208.561722,322.147247 
	C215.106735,322.129089 215.978607,321.236633 215.989136,314.558380 
	C216.027740,290.067963 215.840744,265.573914 216.252182,241.089844 
	C216.347397,235.423706 217.781128,229.521500 219.846481,224.213348 
	C222.349380,217.780685 228.340866,216.254211 234.803879,216.815506 
	C240.824677,217.338394 244.801270,220.721832 246.071686,226.481873 
	C247.172577,231.473221 247.867020,236.657730 247.903107,241.762802 
	C248.075058,266.085541 247.954285,290.410339 247.952988,314.734406 
	C247.952637,321.346710 248.776505,322.137024 255.528122,322.149170 
	C261.692444,322.160217 267.856842,322.164429 274.021149,322.147552 
	C280.561554,322.129669 281.405334,321.276520 281.407898,314.557251 
	C281.416382,292.398956 281.284546,270.239624 281.477264,248.083038 
	C281.532013,241.789536 281.930817,235.383835 283.206146,229.244446 
	C284.912231,221.031296 292.406311,216.280472 300.801025,217.055969 
	C308.672058,217.783096 312.621490,222.420792 313.116058,231.830307 
	C313.360657,236.483932 313.349548,241.154160 313.350403,245.816910 
	C313.354645,268.974701 313.306091,292.132507 313.319641,315.290314 
	C313.322876,320.814941 314.627350,322.106812 320.042847,322.142059 
	C326.706726,322.185425 333.371216,322.180450 340.035156,322.142670 
	C345.819702,322.109894 346.893463,320.976532 346.923096,314.994354 
	C346.946228,310.329559 346.929657,305.664581 346.927979,300.999664 
	C346.918152,274.010803 347.046539,247.020828 346.831024,220.033615 
	C346.740753,208.726562 343.184967,198.736710 333.364838,191.933441 
	C314.905426,179.145050 289.705811,185.766602 279.932739,205.953278 
	C279.591553,206.658051 279.114075,207.296860 278.597870,208.131744 
	C277.612701,206.235626 276.815948,204.591980 275.923706,203.001907 
	C267.361389,187.743134 252.079071,181.799957 235.446152,187.211105 
	C225.360474,190.492249 219.546249,198.093491 214.825363,206.827301 
M452.982483,189.435562 
	C435.669891,182.498688 418.173828,182.588791 400.766571,188.715408 
	C385.897552,193.948685 376.244232,204.244461 372.766266,219.887909 
	C371.718750,224.599609 372.964874,226.443832 377.605530,226.988998 
	C383.227997,227.649521 388.855713,228.271210 394.488281,228.838867 
	C402.006439,229.596588 402.009399,229.567322 404.683868,222.272690 
	C407.734985,213.950699 416.603577,209.018646 426.045044,210.393158 
	C435.272247,211.736450 439.725769,217.043716 440.131104,227.339706 
	C440.259766,230.607666 440.151184,233.884964 440.151184,237.363235 
	C437.840057,237.621323 436.024078,237.757385 434.230133,238.035461 
	C423.715790,239.665176 413.054291,240.682098 402.727997,243.116882 
	C382.460663,247.895554 370.516083,261.773499 368.409454,281.619690 
	C366.241547,302.043243 376.484924,318.793304 394.407196,322.645630 
	C410.850494,326.180115 426.216644,323.506531 439.164978,311.776123 
	C441.099487,310.023590 443.034454,308.271545 444.648193,306.810028 
	C449.098755,311.726746 453.264954,316.414246 457.529999,321.010040 
	C460.202576,323.889862 463.024445,323.581360 465.858765,321.105377 
	C470.875275,316.723083 475.927399,312.381561 480.964600,308.022949 
	C486.249329,303.450195 486.506195,302.665710 482.074341,297.015198 
	C476.569733,289.996979 474.389893,282.222656 474.477844,273.339294 
	C474.652557,255.688507 474.602509,238.023682 474.077148,220.381577 
	C473.654205,206.179092 466.742676,195.794403 452.982483,189.435562 
M116.982414,216.753769 
	C120.776749,223.157928 119.861427,230.134415 119.789658,237.308777 
	C117.685738,237.567657 115.877983,237.741730 114.086090,238.018478 
	C103.568924,239.642822 92.903305,240.641739 82.571465,243.062454 
	C58.818371,248.627792 45.936157,267.135803 48.101562,291.406311 
	C49.523903,307.348358 59.052692,319.442871 73.869003,322.603424 
	C90.313843,326.111359 105.684006,323.609314 118.653809,311.868988 
	C120.605583,310.102234 122.560196,308.338623 124.451401,306.629669 
	C128.101776,310.934937 131.391312,315.341553 135.225052,319.208588 
	C140.541031,324.570801 141.698364,324.425232 147.279037,319.590149 
	C151.684326,315.773376 156.074753,311.939423 160.490952,308.135315 
	C165.905319,303.471436 166.188049,302.709534 161.833145,297.182037 
	C156.204971,290.038452 153.943375,282.117859 154.072937,273.055054 
	C154.315826,256.066742 154.322327,239.063400 153.886124,222.080200 
	C153.431488,204.379532 144.714569,193.122513 127.890419,187.720963 
	C111.611313,182.494400 95.354805,183.116272 79.418304,189.078018 
	C64.980804,194.479004 55.818577,204.809433 52.326141,219.943604 
	C51.252354,224.596786 52.587246,226.441986 57.355659,226.992905 
	C63.476425,227.700058 69.636368,228.130005 75.722649,229.053619 
	C80.380455,229.760452 82.664513,228.208145 84.008789,223.591568 
	C88.090073,209.575439 106.272331,205.514984 116.982414,216.753769 
M807.586548,185.870651 
	C788.511658,183.580795 776.295593,192.476791 769.241821,209.932388 
	C768.858643,204.362564 768.755554,199.226486 768.890381,194.096664 
	C769.003296,189.799973 766.903931,188.058350 762.823486,188.082581 
	C756.328430,188.121185 749.832336,188.151566 743.337952,188.075150 
	C738.978455,188.023865 736.999329,189.929749 737.007080,194.397568 
	C737.077209,234.868134 737.084473,275.338867 737.037720,315.809479 
	C737.032654,320.190857 738.782410,322.269897 743.273438,322.183044 
	C749.766357,322.057495 756.263428,322.157349 762.758728,322.147583 
	C769.743530,322.137115 770.704041,321.147278 770.714172,313.966919 
	C770.746521,290.984039 770.386536,267.990143 771.036926,245.024826 
	C771.237305,237.950974 773.359802,230.604385 776.132385,224.027756 
	C778.623535,218.118515 784.491577,215.716217 791.155823,216.597549 
	C797.689331,217.461594 801.074951,221.787674 802.384094,227.731125 
	C803.307312,231.922134 803.827026,236.286423 803.851074,240.577133 
	C803.989319,265.225098 803.924316,289.874237 803.931458,314.522980 
	C803.933472,321.497498 804.590393,322.139496 811.739075,322.148071 
	C818.067810,322.155640 824.396729,322.179901 830.725220,322.141602 
	C836.312500,322.107758 837.472412,320.982574 837.475342,315.404327 
	C837.489258,288.423920 837.490723,261.443451 837.428162,234.463150 
	C837.417786,229.970688 837.224182,225.466110 836.850647,220.989197 
	C835.109619,200.122025 826.211243,189.193848 807.586548,185.870651 
M691.092285,193.346161 
	C661.888733,176.221085 628.318115,187.023621 615.025269,218.109634 
	C606.621948,237.761246 606.021790,258.158051 610.736694,278.807739 
	C614.010376,293.145508 620.403687,305.782776 632.344055,314.842743 
	C658.804138,334.919800 696.125916,324.578979 710.953064,292.946655 
	C720.706604,272.138367 720.961487,250.463882 715.117981,228.584442 
	C711.318665,214.358902 704.136047,202.251724 691.092285,193.346161 
M359.755371,391.823273 
	C348.468872,390.948547 337.147278,390.390869 325.901794,389.145569 
	C270.113159,382.967773 217.664322,366.265839 168.659958,338.819000 
	C165.961136,337.307404 162.736282,333.769958 159.924149,337.594696 
	C156.848755,341.777466 161.564926,343.769409 163.952881,345.802979 
	C237.218765,408.195068 321.613708,432.200592 416.657196,418.021667 
	C456.572998,412.066895 494.097321,398.865356 528.236145,376.889099 
	C531.867676,374.551361 535.609741,372.212006 538.659851,369.220184 
	C540.098328,367.809265 541.145020,364.246460 540.340698,362.746460 
	C539.341980,360.884033 536.356384,359.749451 534.006836,359.079498 
	C532.662903,358.696259 530.820190,359.721252 529.299438,360.348389 
	C475.299194,382.617157 419.116974,393.180664 359.755371,391.823273 
M589.524841,286.954132 
	C576.234680,280.061279 561.786316,278.493134 546.438599,278.121338 
	C547.617310,276.334717 548.377808,275.119446 549.199097,273.946716 
	C561.318176,256.642242 572.937073,238.953857 585.776489,222.200989 
	C592.606262,213.289459 594.783508,204.079224 593.884155,193.436096 
	C593.579285,189.828506 592.187622,187.845734 588.409424,187.847641 
	C562.093933,187.860916 535.778503,187.855637 509.463013,187.855148 
	C505.962250,187.855072 504.249207,189.704132 504.206573,193.101532 
	C504.148041,197.764297 504.184967,202.428375 504.192322,207.091858 
	C504.202942,213.828751 505.192780,214.811203 512.026855,214.815659 
	C524.621155,214.823853 537.215393,214.818008 550.603455,214.818008 
	C549.219238,216.948196 548.306946,218.441910 547.308289,219.875458 
	C533.044983,240.349548 518.671631,260.748230 504.598114,281.351807 
	C502.343262,284.652893 500.503235,288.762024 500.077637,292.672424 
	C499.324829,299.588837 499.674561,306.642242 499.817444,313.633148 
	C499.913239,318.318024 502.561432,319.873413 506.690948,317.905579 
	C533.942383,304.919250 561.220581,304.876343 588.554443,317.636444 
	C593.558899,319.972687 596.029968,318.377899 596.129456,312.686340 
	C596.216797,307.691254 595.961060,302.684509 596.199890,297.699341 
	C596.434204,292.809265 594.728271,289.292419 589.524841,286.954132 
M565.150574,329.182343 
	C551.151489,326.976440 537.161804,327.117035 523.555481,331.108643 
	C516.614197,333.144989 510.031433,336.545380 503.512085,339.783173 
	C501.775970,340.645386 500.871735,343.182465 499.585571,344.950562 
	C501.659515,345.467438 503.729919,345.999664 505.811401,346.484131 
	C506.111603,346.553986 506.463654,346.361176 506.794373,346.345306 
	C519.414307,345.739594 532.066650,344.295593 544.646057,344.772430 
	C557.845703,345.272797 560.683228,349.379669 557.333435,362.115784 
	C554.043274,374.625122 549.371521,386.768036 545.461121,399.120880 
	C544.927551,400.806671 545.292969,402.777039 545.242126,404.615601 
	C547.186646,404.084656 549.323914,403.892456 551.021301,402.927002 
	C552.702087,401.971069 554.023804,400.311218 555.357727,398.829315 
	C568.898193,383.785675 575.693115,365.782898 577.755554,345.956879 
	C579.032532,333.681000 577.790161,332.447357 565.150574,329.182343 
z"/>
<path fill="#252222" opacity="1.000000" stroke="none" 
	d="
M215.149567,207.151062 
	C219.546249,198.093491 225.360474,190.492249 235.446152,187.211105 
	C252.079071,181.799957 267.361389,187.743134 275.923706,203.001907 
	C276.815948,204.591980 277.612701,206.235626 278.597870,208.131744 
	C279.114075,207.296860 279.591553,206.658051 279.932739,205.953278 
	C289.705811,185.766602 314.905426,179.145050 333.364838,191.933441 
	C343.184967,198.736710 346.740753,208.726562 346.831024,220.033615 
	C347.046539,247.020828 346.918152,274.010803 346.927979,300.999664 
	C346.929657,305.664581 346.946228,310.329559 346.923096,314.994354 
	C346.893463,320.976532 345.819702,322.109894 340.035156,322.142670 
	C333.371216,322.180450 326.706726,322.185425 320.042847,322.142059 
	C314.627350,322.106812 313.322876,320.814941 313.319641,315.290314 
	C313.306091,292.132507 313.354645,268.974701 313.350403,245.816910 
	C313.349548,241.154160 313.360657,236.483932 313.116058,231.830307 
	C312.621490,222.420792 308.672058,217.783096 300.801025,217.055969 
	C292.406311,216.280472 284.912231,221.031296 283.206146,229.244446 
	C281.930817,235.383835 281.532013,241.789536 281.477264,248.083038 
	C281.284546,270.239624 281.416382,292.398956 281.407898,314.557251 
	C281.405334,321.276520 280.561554,322.129669 274.021149,322.147552 
	C267.856842,322.164429 261.692444,322.160217 255.528122,322.149170 
	C248.776505,322.137024 247.952637,321.346710 247.952988,314.734406 
	C247.954285,290.410339 248.075058,266.085541 247.903107,241.762802 
	C247.867020,236.657730 247.172577,231.473221 246.071686,226.481873 
	C244.801270,220.721832 240.824677,217.338394 234.803879,216.815506 
	C228.340866,216.254211 222.349380,217.780685 219.846481,224.213348 
	C217.781128,229.521500 216.347397,235.423706 216.252182,241.089844 
	C215.840744,265.573914 216.027740,290.067963 215.989136,314.558380 
	C215.978607,321.236633 215.106735,322.129089 208.561722,322.147247 
	C201.897629,322.165710 195.231873,322.065308 188.569839,322.184509 
	C184.388489,322.259277 182.439774,320.473938 182.443329,316.244110 
	C182.477356,275.592834 182.480637,234.941498 182.441391,194.290237 
	C182.437408,190.165359 184.169357,188.062195 188.382385,188.084747 
	C195.046356,188.120453 201.710922,188.131119 208.374680,188.078796 
	C212.536697,188.046127 214.509659,189.958069 214.382385,194.171494 
	C214.266754,197.999847 214.335526,201.833786 214.290451,206.317169 
	C214.428207,207.236267 214.598511,207.503448 214.768829,207.770630 
	C214.895752,207.564117 215.022659,207.357590 215.149567,207.151062 
z"/>
<path fill="#252222" opacity="1.000000" stroke="none" 
	d="
M453.315796,189.615814 
	C466.742676,195.794403 473.654205,206.179092 474.077148,220.381577 
	C474.602509,238.023682 474.652557,255.688507 474.477844,273.339294 
	C474.389893,282.222656 476.569733,289.996979 482.074341,297.015198 
	C486.506195,302.665710 486.249329,303.450195 480.964600,308.022949 
	C475.927399,312.381561 470.875275,316.723083 465.858765,321.105377 
	C463.024445,323.581360 460.202576,323.889862 457.529999,321.010040 
	C453.264954,316.414246 449.098755,311.726746 444.648193,306.810028 
	C443.034454,308.271545 441.099487,310.023590 439.164978,311.776123 
	C426.216644,323.506531 410.850494,326.180115 394.407196,322.645630 
	C376.484924,318.793304 366.241547,302.043243 368.409454,281.619690 
	C370.516083,261.773499 382.460663,247.895554 402.727997,243.116882 
	C413.054291,240.682098 423.715790,239.665176 434.230133,238.035461 
	C436.024078,237.757385 437.840057,237.621323 440.151184,237.363235 
	C440.151184,233.884964 440.259766,230.607666 440.131104,227.339706 
	C439.725769,217.043716 435.272247,211.736450 426.045044,210.393158 
	C416.603577,209.018646 407.734985,213.950699 404.683868,222.272690 
	C402.009399,229.567322 402.006439,229.596588 394.488281,228.838867 
	C388.855713,228.271210 383.227997,227.649521 377.605530,226.988998 
	C372.964874,226.443832 371.718750,224.599609 372.766266,219.887909 
	C376.244232,204.244461 385.897552,193.948685 400.766571,188.715408 
	C418.173828,182.588791 435.669891,182.498688 453.315796,189.615814 
M407.421875,293.912781 
	C412.990387,299.654968 419.965057,301.469269 426.236572,297.197632 
	C430.542603,294.264709 434.374756,289.834778 436.882965,285.236359 
	C441.590790,276.605133 440.068024,266.879822 440.158997,256.239838 
	C433.088959,257.438843 426.408875,257.834412 420.209106,259.769135 
	C405.016266,264.510315 399.483612,279.171997 407.421875,293.912781 
z"/>
<path fill="#242121" opacity="1.000000" stroke="none" 
	d="
M116.772141,216.437103 
	C106.272331,205.514984 88.090073,209.575439 84.008789,223.591568 
	C82.664513,228.208145 80.380455,229.760452 75.722649,229.053619 
	C69.636368,228.130005 63.476425,227.700058 57.355659,226.992905 
	C52.587246,226.441986 51.252354,224.596786 52.326141,219.943604 
	C55.818577,204.809433 64.980804,194.479004 79.418304,189.078018 
	C95.354805,183.116272 111.611313,182.494400 127.890419,187.720963 
	C144.714569,193.122513 153.431488,204.379532 153.886124,222.080200 
	C154.322327,239.063400 154.315826,256.066742 154.072937,273.055054 
	C153.943375,282.117859 156.204971,290.038452 161.833145,297.182037 
	C166.188049,302.709534 165.905319,303.471436 160.490952,308.135315 
	C156.074753,311.939423 151.684326,315.773376 147.279037,319.590149 
	C141.698364,324.425232 140.541031,324.570801 135.225052,319.208588 
	C131.391312,315.341553 128.101776,310.934937 124.451401,306.629669 
	C122.560196,308.338623 120.605583,310.102234 118.653809,311.868988 
	C105.684006,323.609314 90.313843,326.111359 73.869003,322.603424 
	C59.052692,319.442871 49.523903,307.348358 48.101562,291.406311 
	C45.936157,267.135803 58.818371,248.627792 82.571465,243.062454 
	C92.903305,240.641739 103.568924,239.642822 114.086090,238.018478 
	C115.877983,237.741730 117.685738,237.567657 119.789658,237.308777 
	C119.861427,230.134415 120.776749,223.157928 116.772141,216.437103 
M84.943672,272.823639 
	C84.635239,277.424103 83.574135,282.124603 84.169411,286.604980 
	C85.563690,297.099243 95.775848,302.692719 105.015831,297.639160 
	C109.386154,295.248871 113.281036,290.928467 115.878456,286.579071 
	C121.226486,277.623779 119.837769,267.399780 119.827095,256.587585 
	C113.971451,257.312012 108.528816,257.631409 103.245270,258.721771 
	C95.292320,260.363007 88.565750,264.044830 84.943672,272.823639 
z"/>
<path fill="#242121" opacity="1.000000" stroke="none" 
	d="
M808.012207,185.895752 
	C826.211243,189.193848 835.109619,200.122025 836.850647,220.989197 
	C837.224182,225.466110 837.417786,229.970688 837.428162,234.463150 
	C837.490723,261.443451 837.489258,288.423920 837.475342,315.404327 
	C837.472412,320.982574 836.312500,322.107758 830.725220,322.141602 
	C824.396729,322.179901 818.067810,322.155640 811.739075,322.148071 
	C804.590393,322.139496 803.933472,321.497498 803.931458,314.522980 
	C803.924316,289.874237 803.989319,265.225098 803.851074,240.577133 
	C803.827026,236.286423 803.307312,231.922134 802.384094,227.731125 
	C801.074951,221.787674 797.689331,217.461594 791.155823,216.597549 
	C784.491577,215.716217 778.623535,218.118515 776.132385,224.027756 
	C773.359802,230.604385 771.237305,237.950974 771.036926,245.024826 
	C770.386536,267.990143 770.746521,290.984039 770.714172,313.966919 
	C770.704041,321.147278 769.743530,322.137115 762.758728,322.147583 
	C756.263428,322.157349 749.766357,322.057495 743.273438,322.183044 
	C738.782410,322.269897 737.032654,320.190857 737.037720,315.809479 
	C737.084473,275.338867 737.077209,234.868134 737.007080,194.397568 
	C736.999329,189.929749 738.978455,188.023865 743.337952,188.075150 
	C749.832336,188.151566 756.328430,188.121185 762.823486,188.082581 
	C766.903931,188.058350 769.003296,189.799973 768.890381,194.096664 
	C768.755554,199.226486 768.858643,204.362564 769.241821,209.932388 
	C776.295593,192.476791 788.511658,183.580795 808.012207,185.895752 
z"/>
<path fill="#242121" opacity="1.000000" stroke="none" 
	d="
M691.386108,193.561478 
	C704.136047,202.251724 711.318665,214.358902 715.117981,228.584442 
	C720.961487,250.463882 720.706604,272.138367 710.953064,292.946655 
	C696.125916,324.578979 658.804138,334.919800 632.344055,314.842743 
	C620.403687,305.782776 614.010376,293.145508 610.736694,278.807739 
	C606.021790,258.158051 606.621948,237.761246 615.025269,218.109634 
	C628.318115,187.023621 661.888733,176.221085 691.386108,193.561478 
M682.728088,264.218475 
	C682.735840,259.221405 683.246460,254.162827 682.644104,249.240433 
	C681.477783,239.709610 680.182434,230.137543 677.972412,220.811981 
	C676.552429,214.819901 671.493652,211.772125 665.284912,211.182800 
	C658.967041,210.583130 653.597656,212.560547 650.278198,218.073761 
	C648.340454,221.292130 646.759277,224.965179 646.037598,228.634277 
	C642.854858,244.815201 643.227356,261.120728 645.778259,277.326294 
	C646.538696,282.157318 648.117310,287.131439 650.497925,291.380646 
	C655.956421,301.123444 668.816345,301.729462 675.485474,292.748260 
	C677.514648,290.015656 679.149048,286.676727 679.896484,283.373871 
	C681.249023,277.397064 681.798584,271.238556 682.728088,264.218475 
z"/>
<path fill="#FF9A03" opacity="1.000000" stroke="none" 
	d="
M360.232300,391.833984 
	C419.116974,393.180664 475.299194,382.617157 529.299438,360.348389 
	C530.820190,359.721252 532.662903,358.696259 534.006836,359.079498 
	C536.356384,359.749451 539.341980,360.884033 540.340698,362.746460 
	C541.145020,364.246460 540.098328,367.809265 538.659851,369.220184 
	C535.609741,372.212006 531.867676,374.551361 528.236145,376.889099 
	C494.097321,398.865356 456.572998,412.066895 416.657196,418.021667 
	C321.613708,432.200592 237.218765,408.195068 163.952881,345.802979 
	C161.564926,343.769409 156.848755,341.777466 159.924149,337.594696 
	C162.736282,333.769958 165.961136,337.307404 168.659958,338.819000 
	C217.664322,366.265839 270.113159,382.967773 325.901794,389.145569 
	C337.147278,390.390869 348.468872,390.948547 360.232300,391.833984 
z"/>
<path fill="#242121" opacity="1.000000" stroke="none" 
	d="
M589.863159,287.110168 
	C594.728271,289.292419 596.434204,292.809265 596.199890,297.699341 
	C595.961060,302.684509 596.216797,307.691254 596.129456,312.686340 
	C596.029968,318.377899 593.558899,319.972687 588.554443,317.636444 
	C561.220581,304.876343 533.942383,304.919250 506.690948,317.905579 
	C502.561432,319.873413 499.913239,318.318024 499.817444,313.633148 
	C499.674561,306.642242 499.324829,299.588837 500.077637,292.672424 
	C500.503235,288.762024 502.343262,284.652893 504.598114,281.351807 
	C518.671631,260.748230 533.044983,240.349548 547.308289,219.875458 
	C548.306946,218.441910 549.219238,216.948196 550.603455,214.818008 
	C537.215393,214.818008 524.621155,214.823853 512.026855,214.815659 
	C505.192780,214.811203 504.202942,213.828751 504.192322,207.091858 
	C504.184967,202.428375 504.148041,197.764297 504.206573,193.101532 
	C504.249207,189.704132 505.962250,187.855072 509.463013,187.855148 
	C535.778503,187.855637 562.093933,187.860916 588.409424,187.847641 
	C592.187622,187.845734 593.579285,189.828506 593.884155,193.436096 
	C594.783508,204.079224 592.606262,213.289459 585.776489,222.200989 
	C572.937073,238.953857 561.318176,256.642242 549.199097,273.946716 
	C548.377808,275.119446 547.617310,276.334717 546.438599,278.121338 
	C561.786316,278.493134 576.234680,280.061279 589.863159,287.110168 
z"/>
<path fill="#FF9B05" opacity="1.000000" stroke="none" 
	d="
M565.565247,329.256592 
	C577.790161,332.447357 579.032532,333.681000 577.755554,345.956879 
	C575.693115,365.782898 568.898193,383.785675 555.357727,398.829315 
	C554.023804,400.311218 552.702087,401.971069 551.021301,402.927002 
	C549.323914,403.892456 547.186646,404.084656 545.242126,404.615601 
	C545.292969,402.777039 544.927551,400.806671 545.461121,399.120880 
	C549.371521,386.768036 554.043274,374.625122 557.333435,362.115784 
	C560.683228,349.379669 557.845703,345.272797 544.646057,344.772430 
	C532.066650,344.295593 519.414307,345.739594 506.794373,346.345306 
	C506.463654,346.361176 506.111603,346.553986 505.811401,346.484131 
	C503.729919,345.999664 501.659515,345.467438 499.585571,344.950562 
	C500.871735,343.182465 501.775970,340.645386 503.512085,339.783173 
	C510.031433,336.545380 516.614197,333.144989 523.555481,331.108643 
	C537.161804,327.117035 551.151489,326.976440 565.565247,329.256592 
z"/>
<path fill="#FFFFFF" opacity="1.000000" stroke="none" 
	d="
M214.987457,206.989197 
	C215.022659,207.357590 214.895752,207.564117 214.768829,207.770630 
	C214.598511,207.503448 214.428207,207.236267 214.371887,206.744354 
	C214.485886,206.519623 214.825363,206.827301 214.987457,206.989197 
z"/>
<path fill="#FCFCFC" opacity="1.000000" stroke="none" 
	d="
M407.214417,293.596283 
	C399.483612,279.171997 405.016266,264.510315 420.209106,259.769135 
	C426.408875,257.834412 433.088959,257.438843 440.158997,256.239838 
	C440.068024,266.879822 441.590790,276.605133 436.882965,285.236359 
	C434.374756,289.834778 430.542603,294.264709 426.236572,297.197632 
	C419.965057,301.469269 412.990387,299.654968 407.214417,293.596283 
z"/>
<path fill="#FCFCFC" opacity="1.000000" stroke="none" 
	d="
M85.058769,272.437256 
	C88.565750,264.044830 95.292320,260.363007 103.245270,258.721771 
	C108.528816,257.631409 113.971451,257.312012 119.827095,256.587585 
	C119.837769,267.399780 121.226486,277.623779 115.878456,286.579071 
	C113.281036,290.928467 109.386154,295.248871 105.015831,297.639160 
	C95.775848,302.692719 85.563690,297.099243 84.169411,286.604980 
	C83.574135,282.124603 84.635239,277.424103 85.058769,272.437256 
z"/>
<path fill="#FCFCFC" opacity="1.000000" stroke="none" 
	d="
M682.705811,264.687195 
	C681.798584,271.238556 681.249023,277.397064 679.896484,283.373871 
	C679.149048,286.676727 677.514648,290.015656 675.485474,292.748260 
	C668.816345,301.729462 655.956421,301.123444 650.497925,291.380646 
	C648.117310,287.131439 646.538696,282.157318 645.778259,277.326294 
	C643.227356,261.120728 642.854858,244.815201 646.037598,228.634277 
	C646.759277,224.965179 648.340454,221.292130 650.278198,218.073761 
	C653.597656,212.560547 658.967041,210.583130 665.284912,211.182800 
	C671.493652,211.772125 676.552429,214.819901 677.972412,220.811981 
	C680.182434,230.137543 681.477783,239.709610 682.644104,249.240433 
	C683.246460,254.162827 682.735840,259.221405 682.705811,264.687195 
z"/>
</svg>